<?xml version="1.0" encoding="UTF-8" standalone="no"?>
<!DOCTYPE svg PUBLIC "-//W3C//DTD SVG 1.1//EN"
 "http://www.w3.org/Graphics/SVG/1.1/DTD/svg11.dtd">
<!-- Generated by graphviz version 14.1.1 (20251213.1925)
 -->
<!-- Title: InheritanceTree Pages: 1 -->
<svg width="442pt" height="357pt"
 viewBox="0.00 0.00 442.00 357.00" xmlns="http://www.w3.org/2000/svg" xmlns:xlink="http://www.w3.org/1999/xlink">
<g id="graph0" class="graph" transform="scale(1 1) rotate(0) translate(4 352.5)">
<title>InheritanceTree</title>
<polygon fill="white" stroke="none" points="-4,4 -4,-352.5 438,-352.5 438,4 -4,4"/>
<text xml:space="preserve" text-anchor="middle" x="217" y="-7.2" font-family="Times New Roman,serif" font-size="14.00">simple_encryption &#45; Inheritance Hierarchy</text>
<!-- SIMPLE_ENCRYPTION -->
<g id="node1" class="node">
<title>SIMPLE_ENCRYPTION</title>
<path fill="none" stroke="black" d="M169,-60.5C169,-60.5 36.75,-60.5 36.75,-60.5 30.75,-60.5 24.75,-54.5 24.75,-48.5 24.75,-48.5 24.75,-36.5 24.75,-36.5 24.75,-30.5 30.75,-24.5 36.75,-24.5 36.75,-24.5 169,-24.5 169,-24.5 175,-24.5 181,-30.5 181,-36.5 181,-36.5 181,-48.5 181,-48.5 181,-54.5 175,-60.5 169,-60.5"/>
<text xml:space="preserve" text-anchor="middle" x="102.88" y="-37.45" font-family="Times New Roman,serif" font-size="14.00">SIMPLE_ENCRYPTION</text>
</g>
<!-- SIMPLE_ENCRYPTION_QUICK -->
<g id="node2" class="node">
<title>SIMPLE_ENCRYPTION_QUICK</title>
<path fill="none" stroke="black" d="M193.75,-132.5C193.75,-132.5 12,-132.5 12,-132.5 6,-132.5 0,-126.5 0,-120.5 0,-120.5 0,-108.5 0,-108.5 0,-102.5 6,-96.5 12,-96.5 12,-96.5 193.75,-96.5 193.75,-96.5 199.75,-96.5 205.75,-102.5 205.75,-108.5 205.75,-108.5 205.75,-120.5 205.75,-120.5 205.75,-126.5 199.75,-132.5 193.75,-132.5"/>
<text xml:space="preserve" text-anchor="middle" x="102.88" y="-109.45" font-family="Times New Roman,serif" font-size="14.00">SIMPLE_ENCRYPTION_QUICK</text>
</g>
<!-- ENCRYPTION_TEST_APP -->
<g id="node3" class="node">
<title>ENCRYPTION_TEST_APP</title>
<path fill="none" stroke="black" d="M176.5,-276.5C176.5,-276.5 29.25,-276.5 29.25,-276.5 23.25,-276.5 17.25,-270.5 17.25,-264.5 17.25,-264.5 17.25,-252.5 17.25,-252.5 17.25,-246.5 23.25,-240.5 29.25,-240.5 29.25,-240.5 176.5,-240.5 176.5,-240.5 182.5,-240.5 188.5,-246.5 188.5,-252.5 188.5,-252.5 188.5,-264.5 188.5,-264.5 188.5,-270.5 182.5,-276.5 176.5,-276.5"/>
<text xml:space="preserve" text-anchor="middle" x="102.88" y="-253.45" font-family="Times New Roman,serif" font-size="14.00">ENCRYPTION_TEST_APP</text>
</g>
<!-- TEST_SET_BASE -->
<g id="node4" class="node">
<title>TEST_SET_BASE</title>
<path fill="none" stroke="black" d="M422,-240.5C422,-240.5 325.75,-240.5 325.75,-240.5 319.75,-240.5 313.75,-234.5 313.75,-228.5 313.75,-228.5 313.75,-216.5 313.75,-216.5 313.75,-210.5 319.75,-204.5 325.75,-204.5 325.75,-204.5 422,-204.5 422,-204.5 428,-204.5 434,-210.5 434,-216.5 434,-216.5 434,-228.5 434,-228.5 434,-234.5 428,-240.5 422,-240.5"/>
<text xml:space="preserve" text-anchor="middle" x="373.88" y="-217.45" font-family="Times New Roman,serif" font-size="14.00">TEST_SET_BASE</text>
</g>
<!-- ENCRYPTION_TEST_APP&#45;&gt;TEST_SET_BASE -->
<g id="edge1" class="edge">
<title>ENCRYPTION_TEST_APP&#45;&gt;TEST_SET_BASE</title>
<path fill="none" stroke="black" d="M167,-240.01C167,-233.84 167,-228.5 167,-228.5 167,-228.5 301.97,-228.5 301.97,-228.5"/>
<polygon fill="none" stroke="black" points="301.97,-232 311.97,-228.5 301.97,-225 301.97,-232"/>
</g>
<!-- LIB_TESTS -->
<g id="node5" class="node">
<title>LIB_TESTS</title>
<path fill="none" stroke="black" d="M133,-204.5C133,-204.5 72.75,-204.5 72.75,-204.5 66.75,-204.5 60.75,-198.5 60.75,-192.5 60.75,-192.5 60.75,-180.5 60.75,-180.5 60.75,-174.5 66.75,-168.5 72.75,-168.5 72.75,-168.5 133,-168.5 133,-168.5 139,-168.5 145,-174.5 145,-180.5 145,-180.5 145,-192.5 145,-192.5 145,-198.5 139,-204.5 133,-204.5"/>
<text xml:space="preserve" text-anchor="middle" x="102.88" y="-181.45" font-family="Times New Roman,serif" font-size="14.00">LIB_TESTS</text>
</g>
<!-- LIB_TESTS&#45;&gt;TEST_SET_BASE -->
<g id="edge2" class="edge">
<title>LIB_TESTS&#45;&gt;TEST_SET_BASE</title>
<path fill="none" stroke="black" d="M103,-204.99C103,-211.16 103,-216.5 103,-216.5 103,-216.5 301.91,-216.5 301.91,-216.5"/>
<polygon fill="none" stroke="black" points="301.91,-220 311.91,-216.5 301.91,-213 301.91,-220"/>
</g>
<!-- TEST_APP -->
<g id="node6" class="node">
<title>TEST_APP</title>
<path fill="none" stroke="black" d="M130.75,-348.5C130.75,-348.5 75,-348.5 75,-348.5 69,-348.5 63,-342.5 63,-336.5 63,-336.5 63,-324.5 63,-324.5 63,-318.5 69,-312.5 75,-312.5 75,-312.5 130.75,-312.5 130.75,-312.5 136.75,-312.5 142.75,-318.5 142.75,-324.5 142.75,-324.5 142.75,-336.5 142.75,-336.5 142.75,-342.5 136.75,-348.5 130.75,-348.5"/>
<text xml:space="preserve" text-anchor="middle" x="102.88" y="-325.45" font-family="Times New Roman,serif" font-size="14.00">TEST_APP</text>
</g>
</g>
</svg>
