<?xml version="1.0" encoding="UTF-8" standalone="no"?>
<!DOCTYPE svg PUBLIC "-//W3C//DTD SVG 1.1//EN"
 "http://www.w3.org/Graphics/SVG/1.1/DTD/svg11.dtd">
<!-- Generated by graphviz version 14.1.1 (20251213.1925)
 -->
<!-- Title: Dependencies Pages: 1 -->
<svg width="376pt" height="501pt"
 viewBox="0.00 0.00 376.00 501.00" xmlns="http://www.w3.org/2000/svg" xmlns:xlink="http://www.w3.org/1999/xlink">
<g id="graph0" class="graph" transform="scale(1 1) rotate(0) translate(4 496.5)">
<title>Dependencies</title>
<polygon fill="white" stroke="none" points="-4,4 -4,-496.5 372,-496.5 372,4 -4,4"/>
<text xml:space="preserve" text-anchor="middle" x="184" y="-7.2" font-family="Times New Roman,serif" font-size="14.00">simple_encryption &#45; Dependencies</text>
<!-- simple_encryption -->
<g id="node1" class="node">
<title>simple_encryption</title>
<polygon fill="lightblue" stroke="black" points="117.25,-276.5 0,-276.5 0,-240.5 117.25,-240.5 117.25,-276.5"/>
<text xml:space="preserve" text-anchor="middle" x="58.62" y="-253.45" font-family="Times New Roman,serif" font-size="14.00">simple_encryption</text>
</g>
<!-- simple_datetime -->
<g id="node2" class="node">
<title>simple_datetime</title>
<polygon fill="lightblue" stroke="black" points="368,-492.5 261.25,-492.5 261.25,-456.5 368,-456.5 368,-492.5"/>
<text xml:space="preserve" text-anchor="middle" x="314.62" y="-469.45" font-family="Times New Roman,serif" font-size="14.00">simple_datetime</text>
</g>
<!-- simple_encryption&#45;&gt;simple_datetime -->
<g id="edge1" class="edge">
<title>simple_encryption&#45;&gt;simple_datetime</title>
<path fill="none" stroke="black" stroke-dasharray="5,2" d="M29,-276.92C29,-329.15 29,-474.5 29,-474.5 29,-474.5 249.39,-474.5 249.39,-474.5"/>
<polygon fill="black" stroke="black" points="249.39,-478 259.39,-474.5 249.39,-471 249.39,-478"/>
</g>
<!-- simple_base64 -->
<g id="node3" class="node">
<title>simple_base64</title>
<polygon fill="lightblue" stroke="black" points="363.12,-420.5 266.12,-420.5 266.12,-384.5 363.12,-384.5 363.12,-420.5"/>
<text xml:space="preserve" text-anchor="middle" x="314.62" y="-397.45" font-family="Times New Roman,serif" font-size="14.00">simple_base64</text>
</g>
<!-- simple_encryption&#45;&gt;simple_base64 -->
<g id="edge2" class="edge">
<title>simple_encryption&#45;&gt;simple_base64</title>
<path fill="none" stroke="black" stroke-dasharray="5,2" d="M59,-276.74C59,-315.49 59,-402.5 59,-402.5 59,-402.5 254.13,-402.5 254.13,-402.5"/>
<polygon fill="black" stroke="black" points="254.13,-406 264.13,-402.5 254.13,-399 254.13,-406"/>
</g>
<!-- simple_logger -->
<g id="node4" class="node">
<title>simple_logger</title>
<polygon fill="lightblue" stroke="black" points="361.62,-348.5 267.62,-348.5 267.62,-312.5 361.62,-312.5 361.62,-348.5"/>
<text xml:space="preserve" text-anchor="middle" x="314.62" y="-325.45" font-family="Times New Roman,serif" font-size="14.00">simple_logger</text>
</g>
<!-- simple_encryption&#45;&gt;simple_logger -->
<g id="edge3" class="edge">
<title>simple_encryption&#45;&gt;simple_logger</title>
<path fill="none" stroke="black" stroke-dasharray="5,2" d="M88,-276.67C88,-298 88,-330.5 88,-330.5 88,-330.5 255.88,-330.5 255.88,-330.5"/>
<polygon fill="black" stroke="black" points="255.88,-334 265.88,-330.5 255.88,-327 255.88,-334"/>
</g>
<!-- simple_testing -->
<g id="node5" class="node">
<title>simple_testing</title>
<polygon fill="lightblue" stroke="black" points="362.38,-276.5 266.88,-276.5 266.88,-240.5 362.38,-240.5 362.38,-276.5"/>
<text xml:space="preserve" text-anchor="middle" x="314.62" y="-253.45" font-family="Times New Roman,serif" font-size="14.00">simple_testing</text>
</g>
<!-- simple_encryption&#45;&gt;simple_testing -->
<g id="edge4" class="edge">
<title>simple_encryption&#45;&gt;simple_testing</title>
<path fill="none" stroke="black" stroke-dasharray="5,2" d="M117.68,-258.5C117.68,-258.5 255.06,-258.5 255.06,-258.5"/>
<polygon fill="black" stroke="black" points="255.06,-262 265.06,-258.5 255.06,-255 255.06,-262"/>
</g>
<!-- base -->
<g id="node6" class="node">
<title>base</title>
<polygon fill="lightgray" stroke="black" points="341.62,-204.5 287.62,-204.5 287.62,-168.5 341.62,-168.5 341.62,-204.5"/>
<text xml:space="preserve" text-anchor="middle" x="314.62" y="-181.45" font-family="Times New Roman,serif" font-size="14.00">base</text>
</g>
<!-- simple_encryption&#45;&gt;base -->
<g id="edge5" class="edge">
<title>simple_encryption&#45;&gt;base</title>
<path fill="none" stroke="black" stroke-dasharray="5,2" d="M88,-240.33C88,-219 88,-186.5 88,-186.5 88,-186.5 275.78,-186.5 275.78,-186.5"/>
<polygon fill="black" stroke="black" points="275.78,-190 285.78,-186.5 275.78,-183 275.78,-190"/>
</g>
<!-- eel -->
<g id="node7" class="node">
<title>eel</title>
<polygon fill="lightgray" stroke="black" points="341.62,-132.5 287.62,-132.5 287.62,-96.5 341.62,-96.5 341.62,-132.5"/>
<text xml:space="preserve" text-anchor="middle" x="314.62" y="-109.45" font-family="Times New Roman,serif" font-size="14.00">eel</text>
</g>
<!-- simple_encryption&#45;&gt;eel -->
<g id="edge6" class="edge">
<title>simple_encryption&#45;&gt;eel</title>
<path fill="none" stroke="black" stroke-dasharray="5,2" d="M59,-240.26C59,-201.51 59,-114.5 59,-114.5 59,-114.5 275.76,-114.5 275.76,-114.5"/>
<polygon fill="black" stroke="black" points="275.76,-118 285.76,-114.5 275.76,-111 275.76,-118"/>
</g>
<!-- testing -->
<g id="node8" class="node">
<title>testing</title>
<polygon fill="lightgray" stroke="black" points="341.62,-60.5 287.62,-60.5 287.62,-24.5 341.62,-24.5 341.62,-60.5"/>
<text xml:space="preserve" text-anchor="middle" x="314.62" y="-37.45" font-family="Times New Roman,serif" font-size="14.00">testing</text>
</g>
<!-- simple_encryption&#45;&gt;testing -->
<g id="edge7" class="edge">
<title>simple_encryption&#45;&gt;testing</title>
<path fill="none" stroke="black" stroke-dasharray="5,2" d="M29,-240.08C29,-187.85 29,-42.5 29,-42.5 29,-42.5 275.72,-42.5 275.72,-42.5"/>
<polygon fill="black" stroke="black" points="275.72,-46 285.72,-42.5 275.72,-39 275.72,-46"/>
</g>
</g>
</svg>
